<?xml version="1.0" encoding="utf-8"?>
<!-- Generator: Adobe Illustrator 18.1.1, SVG Export Plug-In . SVG Version: 6.00 Build 0)  -->
<svg version="1.1" id="Layer_1" xmlns="http://www.w3.org/2000/svg" xmlns:xlink="http://www.w3.org/1999/xlink" x="0px" y="0px"
	 viewBox="0 0 500 500" enable-background="new 0 0 500 500" xml:space="preserve">
<path fill="#EE2A5C" d="M343.4,429.6c20.3-12.8,33.6-26.9,47.7-48.2c53.5-80.5,31.5-189.2-49-242.7s-189.2-31.5-242.7,49
	c-28.5,42.9-36.6,86.8-24.8,133l0,0c-8.2,1.7-9.4-3.4-9.4-3.4c-12.8-50.4-5.1-105.9,25.9-152.6C149.4,77,267.7,53.1,355.5,111.4
	S467.1,288,408.9,375.7c-15.4,23.1-35.6,40.9-56.5,56.4C352.3,432.1,346.4,436.5,343.4,429.6L343.4,429.6z"/>
<g>
	<path d="M345.4,179.3c0-5.4-4.4-9.9-9.9-9.9H163.4c-5.4,0-9.9,4.4-9.9,9.9c0,3.6,2,6.8,4.9,8.5v113.4c2.7-2.4,5.9-5.4,9.8-9v-103
		h162.4v108.3H203.8c-3.3,3.6-6.3,6.9-9,9.8h8.7l-17.7,66.3c-1.4,5.3,1.7,10.6,7,12.1c5.2,1.4,10.6-1.7,12-7l17.7-66.5h53.8
		l17.7,66.5c1.2,4.4,5.1,7.3,9.5,7.3c0.9,0,1.7-0.1,2.5-0.3c5.3-1.4,8.4-6.8,7-12.1l-17.7-66.3h40.1c2.7,0,4.9-2.2,4.9-4.9V187.7
		C343.4,186.1,345.4,182.9,345.4,179.3L345.4,179.3z M345.4,179.3"/>
	<path d="M256.8,278.9V242c0-5.4-4.4-9.9-9.8-9.9c-5.4,0-9.9,4.4-9.9,9.9v36.9c0,5.4,4.4,9.8,9.9,9.8
		C252.4,288.8,256.8,284.3,256.8,278.9L256.8,278.9z M256.8,278.9"/>
	<path d="M288.8,278.9v-71.4c0-5.4-4.4-9.8-9.8-9.8c-5.4,0-9.9,4.4-9.9,9.8v71.3c0,5.4,4.4,9.8,9.9,9.8
		C284.4,288.8,288.8,284.3,288.8,278.9L288.8,278.9z M288.8,278.9"/>
	<g>
		<defs>
			<rect id="SVGID_1_" x="151.1" y="169.4" width="194.8" height="218.8"/>
		</defs>
		<clipPath id="SVGID_2_">
			<use xlink:href="#SVGID_1_"  overflow="visible"/>
		</clipPath>
		<path clip-path="url(#SVGID_2_)" d="M320.8,278.9v-51.7c0-5.4-4.4-9.8-9.8-9.8c-5.4,0-9.9,4.4-9.9,9.8v51.7c0,5.4,4.4,9.8,9.9,9.8
			C316.4,288.8,320.8,284.3,320.8,278.9L320.8,278.9z M320.8,278.9"/>
		<path clip-path="url(#SVGID_2_)" d="M222.5,259c-0.9-0.9-2.5-0.9-3.4,0c0,0-65.9,60.2-66.2,60.5c-2.5,2.5-2.5,6.5,0,9
			c2.5,2.5,6.6,2.5,9.1,0c0.3-0.3,60.5-66.2,60.5-66.2C223.5,261.4,223.5,259.9,222.5,259L222.5,259z M222.5,259"/>
	</g>
</g>
</svg>
