<?xml version="1.0" encoding="utf-8"?>
<!-- Generator: Adobe Illustrator 18.1.1, SVG Export Plug-In . SVG Version: 6.00 Build 0)  -->
<svg version="1.1" id="Layer_1" xmlns="http://www.w3.org/2000/svg" xmlns:xlink="http://www.w3.org/1999/xlink" x="0px" y="0px"
	 viewBox="0 0 500 500" enable-background="new 0 0 500 500" xml:space="preserve">
<path fill="#EE2A5C" d="M341,426.2c20.2-12.7,33.5-26.8,47.5-48c53.3-80.2,31.4-188.4-48.8-241.7S151.2,105.1,98,185.3
	c-28.4,42.7-36.4,86.4-24.7,132.5l0,0c-8.2,1.7-9.4-3.4-9.4-3.4c-12.8-50.2-5.1-105.4,25.8-152c58-87.4,175.9-111.2,263.3-53.2
	s111.2,175.9,53.2,263.3c-15.3,23.1-35.5,40.7-56.3,56.2C349.9,428.8,344,433.1,341,426.2L341,426.2z"/>
<g>
	<g>
		<g>
			<path fill="#010101" d="M321.2,343c-10,0-18-8.1-18-18c0-10,8.1-18,18-18c10,0,18,8.1,18,18C339.3,334.9,331.2,343,321.2,343z
				 M233.3,189.8c0-10,8.1-18,18-18s18,8.1,18,18s-8.1,18-18,18C241.4,207.9,233.3,199.8,233.3,189.8z M186.1,359.2
				c-18.9,0-34.1-15.3-34.1-34.1s15.3-34.1,34.1-34.1s34.1,15.3,34.1,34.1S204.9,359.2,186.1,359.2z M321.2,288.1
				c-3.4,0-6.7,0.5-9.8,1.3L276.1,217c7.4-6.7,12-16.4,12-27.2c0-20.3-16.5-36.8-36.8-36.8s-36.8,16.5-36.8,36.8
				c0,10,4,19,10.4,25.6L200.1,274c-4.5-1.2-9.2-1.9-14-1.9c-29.1,0-52.8,23.7-52.8,52.9c0,29.2,23.7,52.9,52.9,52.9
				s52.9-23.7,52.9-52.9c0-17.7-8.6-33.3-21.9-42.9l24.2-56.9c3.2,0.9,6.6,1.4,10.1,1.4c2.8,0,5.6-0.3,8.2-0.9l35.7,73.2
				c-6.7,6.7-10.8,15.8-10.8,26c0,20.3,16.5,36.8,36.8,36.8s36.8-16.5,36.8-36.8S341.5,288.1,321.2,288.1L321.2,288.1z"/>
		</g>
	</g>
</g>
</svg>
