<?xml version="1.0" encoding="utf-8"?>
<!-- Generator: Adobe Illustrator 18.1.1, SVG Export Plug-In . SVG Version: 6.00 Build 0)  -->
<svg version="1.1" id="Layer_1" xmlns="http://www.w3.org/2000/svg" xmlns:xlink="http://www.w3.org/1999/xlink" x="0px" y="0px"
	 viewBox="0 0 500 500" enable-background="new 0 0 500 500" xml:space="preserve">
<path fill="#EE2A5C" d="M341.4,429c20.2-12.7,33.5-26.8,47.5-48c53.3-80.3,31.4-188.5-48.8-241.8S151.6,107.7,98.3,188
	c-28.4,42.8-36.4,86.4-24.7,132.6l0,0c-8.2,1.7-9.4-3.4-9.4-3.4c-12.8-50.2-5.1-105.5,25.8-152.1c58.1-87.4,176-111.2,263.4-53.2
	s111.2,176,53.2,263.4c-15.3,23.1-35.5,40.8-56.3,56.2C350.3,431.5,344.4,435.8,341.4,429L341.4,429z"/>
<g>
	<path d="M313.6,178.4h20.8v165.2h-20.8V178.4z M272.2,184.4l-2.9,0.9c-3.6,1.1-7.9-0.4-9.3-3.5c-0.7-1.5-0.7-3.1-0.1-4.6
		c0.7-1.7,2.3-3.1,4.3-3.7l32.5-10.1l4,29c0.2,1.5-0.2,3-1.2,4.2c-1.2,1.5-3.1,2.5-5.3,2.7c-0.3,0-0.5,0-0.8,0
		c-3.7,0-6.8-2.3-7.3-5.4l-0.5-4.4c-37.6,52-124,107.7-127.8,110.1c-1.3,0.8-2.8,1.2-4.4,1.2c-2.2,0-4.2-0.8-5.6-2.2
		c-1.3-1.3-1.9-2.9-1.7-4.6c0.2-1.7,1.2-3.4,2.9-4.4C149.9,289.2,235.6,233.8,272.2,184.4L272.2,184.4z M296.8,215.1v128.5H276
		V215.1H296.8z M260.4,253.3v90.3h-20.8v-90.3H260.4z M222.8,293v50.7H202V293H222.8z M183,312.8v30.8h-20.8v-30.8H183z
		 M340.9,363.4H130.1V348h210.8V363.4z M340.9,363.4"/>
</g>
</svg>
