<?xml version="1.0" encoding="utf-8"?>
<!-- Generator: Adobe Illustrator 18.1.1, SVG Export Plug-In . SVG Version: 6.00 Build 0)  -->
<svg version="1.1" id="Layer_1" xmlns="http://www.w3.org/2000/svg" xmlns:xlink="http://www.w3.org/1999/xlink" x="0px" y="0px"
	 viewBox="0 0 500 500" enable-background="new 0 0 500 500" xml:space="preserve">
<path fill="#EE2A5C" d="M348.1,425.5c20.1-12.7,33.3-26.7,47.3-47.8c53-79.9,31.3-187.6-48.6-240.7s-187.6-31.3-240.7,48.6
	c-28.3,42.6-36.3,86-24.6,131.9l0,0c-8.2,1.6-9.3-3.4-9.3-3.4c-12.7-50-5.1-105,25.7-151.3c57.8-87,175.1-110.7,262.2-52.9
	S470.8,285,413,372.1c-15.2,23-35.3,40.6-56,56C357,428,351.1,432.3,348.1,425.5L348.1,425.5z"/>
<g>
	<g>
		<defs>
			<rect id="SVGID_1_" x="121.6" y="143" width="258" height="261.5"/>
		</defs>
		<clipPath id="SVGID_2_">
			<use xlink:href="#SVGID_1_"  overflow="visible"/>
		</clipPath>
		<path clip-path="url(#SVGID_2_)" d="M251.3,371.9c-54.7,0-99.2-44.5-99.2-99.2c0-54.7,44.5-99.2,99.2-99.2h3.8v92h95.2l0.1,4
			c0,1.1,0.1,2.1,0.1,3.2C350.6,327.3,306.1,371.9,251.3,371.9L251.3,371.9z M247.5,181.1c-48.7,2-87.8,42.3-87.8,91.5
			c0,50.5,41.1,91.6,91.6,91.6c50.4,0,91.4-40.9,91.6-91.2h-95.4V181.1z M247.5,181.1"/>
		<path clip-path="url(#SVGID_2_)" d="M139.5,272.6c0-29.9,11.6-58,32.8-79.1c39.2-39.2,100.4-43.1,144.1-11.9h-8
			c-4.2,0-7.7,3.4-7.7,7.7c0,4.2,3.4,7.7,7.7,7.7h28.4c2,0,4-0.8,5.4-2.2c1.4-1.4,2.2-3.4,2.2-5.4l0-29.4c0-4.2-3.4-7.6-7.7-7.6
			c-4.2,0-7.6,3.4-7.6,7.6v8.9c-50.8-38.1-123.3-34.1-169.5,12.1c-24.5,24.5-38,57.1-38,91.7c0,34.7,13.5,67.2,38,91.7
			c19.3,19.3,43.6,31.8,70.5,36.3L233,383c-23.1-3.8-44.1-14.6-60.8-31.3C151.1,330.6,139.5,302.5,139.5,272.6L139.5,272.6z
			 M139.5,272.6"/>
	</g>
	<path d="M282.6,380.1c-11.8,3.4-24,4.9-36.4,4.3l-0.8,17.8c2,0.1,4,0.1,6,0.1c12.3,0,24.4-1.7,36.2-5.1c3.9-1.1,7.8-2.5,11.6-4
		l-6.6-16.6C289.3,377.9,286,379.1,282.6,380.1L282.6,380.1z M282.6,380.1"/>
	<path d="M315.7,364.2c-5.1,3.6-10.4,6.7-16,9.4l7.7,16.1c6.5-3.1,12.7-6.8,18.6-10.9c6.1-4.3,11.8-9.1,17.1-14.4l-12.6-12.6
		C325.9,356.3,320.9,360.5,315.7,364.2L315.7,364.2z M315.7,364.2"/>
	<path d="M346.3,331.8c-1.9,3-3.9,5.9-6,8.7c-1.2,1.5-2.4,3-3.6,4.5l13.6,11.6c1.4-1.7,2.9-3.5,4.2-5.2c2.5-3.2,4.8-6.6,7-10.1
		c2.5-3.9,4.7-8,6.7-12.2l-16.1-7.8C350.4,324.8,348.4,328.4,346.3,331.8L346.3,331.8z M346.3,331.8"/>
	<path d="M359.8,300.2c-1.3,5-2.9,10-4.9,14.9l16.5,6.8c2.3-5.6,4.2-11.4,5.7-17.2L359.8,300.2z M359.8,300.2"/>
</g>
</svg>
