<?xml version="1.0" encoding="utf-8"?>
<!-- Generator: Adobe Illustrator 18.1.1, SVG Export Plug-In . SVG Version: 6.00 Build 0)  -->
<svg version="1.1" id="Layer_1" xmlns="http://www.w3.org/2000/svg" xmlns:xlink="http://www.w3.org/1999/xlink" x="0px" y="0px"
	 viewBox="0 0 500 500" enable-background="new 0 0 500 500" xml:space="preserve">
<path fill="#EE2A5C" d="M334.4,429.9c20.2-12.7,33.5-26.8,47.5-48c53.3-80.3,31.4-188.5-48.8-241.8s-188.5-31.4-241.8,48.8
	c-28.4,42.8-36.4,86.4-24.7,132.6l0,0c-8.2,1.7-9.4-3.4-9.4-3.4C44.5,267.8,52.1,212.6,83.1,166c58.1-87.4,176-111.2,263.4-53.2
	s111.2,176,53.2,263.4c-15.3,23.1-35.5,40.8-56.3,56.2C343.4,432.4,337.5,436.8,334.4,429.9L334.4,429.9z"/>
<g>
	<g>
		<defs>
			<rect id="SVGID_1_" x="103.5" y="199.7" width="268.1" height="123.6"/>
		</defs>
		<clipPath id="SVGID_2_">
			<use xlink:href="#SVGID_1_"  overflow="visible"/>
		</clipPath>
		<path clip-path="url(#SVGID_2_)" d="M222.6,255c-8.3,8.3-8.3,21.7,0,30c8.3,8.3,21.7,8.3,30,0c8.3-8.3,8.3-21.7,0-30
			C244.3,246.7,230.9,246.7,222.6,255L222.6,255z M252,269.4c-1.7,1.7-6.2,0-10-3.8c-3.8-3.8-5.5-8.3-3.8-10c1.7-1.7,6.2,0,10,3.8
			C252,263.1,253.7,267.6,252,269.4L252,269.4z M252,269.4"/>
		<path clip-path="url(#SVGID_2_)" d="M371.6,279.3c-1.4-2-2.7-3.9-4-5.9c-6.1-8.9-13.2-17.1-21-24.6c-9.9-9.6-20.8-18.2-32.5-25.5
			c-11.8-7.3-24.4-13.3-37.7-17.5c-11-3.4-22.3-5.5-33.8-6c-10.7-0.5-21.4,0.6-31.8,2.8c-13.6,2.9-26.8,8-39.1,14.6
			c-12.2,6.5-23.6,14.4-34.1,23.4c-5.2,4.5-10.2,9.2-14.9,14.2c-4.5,4.7-8.7,9.7-12.5,14.9c-1.4,1.9-2.7,3.8-4,5.7
			c-0.9,1.3-1.7,2.5-2.6,3.8c-0.2,0.2-0.1,0.3,0.2,0.5c0.6,0.5,1.2,1,1.8,1.5c2.2,1.8,4.3,3.6,6.5,5.4c5.5,4.4,11.2,8.6,17,12.5
			c11.6,7.8,23.8,14.6,36.6,20.3c2.6,1.1,5.2,2.2,7.8,3.3c-5.9-3.7-11.6-7.6-17.2-11.8c-5.6-4.3-11-8.8-16.2-13.5
			c-6.2-5.6-12.1-11.5-17.6-17.8c10.5-6.8,21.2-13.3,32.2-19.3c10.7-5.8,21.6-10.9,33-15.3c2.3-0.9,4.6-1.7,6.9-2.5
			c-5.1,7.9-8,17.4-8,27.5c0,28.2,22.9,51.1,51.1,51.1c28.2,0,51.1-22.9,51.1-51.1c0-10-2.9-19.4-8-27.3c2.9,1,5.9,2.1,8.8,3.2
			c13.2,5.1,25.8,11.5,38,18.4c8.5,4.8,16.8,10,25.1,15.3c-9.2,10.4-19.5,20.1-30.4,28.7c-6.6,5.2-13.4,9.9-20.5,14.4
			c6.4-2.6,12.8-5.4,19-8.5c6.3-3.2,12.4-6.6,18.3-10.3c9.7-6.1,19.3-12.7,27.9-20.3c1-0.9,2-1.7,3-2.5c0.5-0.4,1-0.8,1.5-1.2
			C371.7,279.5,371.8,279.5,371.6,279.3L371.6,279.3z M237.6,304.7c-19.2,0-34.8-15.6-34.8-34.8c0-19.2,15.6-34.8,34.8-34.8
			c19.2,0,34.8,15.6,34.8,34.8C272.3,289.1,256.7,304.7,237.6,304.7L237.6,304.7z M237.6,304.7"/>
	</g>
</g>
</svg>
