<?xml version="1.0" encoding="utf-8"?>
<!-- Generator: Adobe Illustrator 18.1.1, SVG Export Plug-In . SVG Version: 6.00 Build 0)  -->
<svg version="1.1" id="Layer_1" xmlns="http://www.w3.org/2000/svg" xmlns:xlink="http://www.w3.org/1999/xlink" x="0px" y="0px"
	 viewBox="0 0 500 500" enable-background="new 0 0 500 500" xml:space="preserve">
<path fill="#EE2A5C" d="M342.3,428.1c20-12.6,33.2-26.6,47.2-47.6c52.9-79.6,31.2-187-48.4-239.9S154,109.3,101.1,189
	C73,231.4,65,274.7,76.6,320.5l0,0c-8.1,1.6-9.3-3.4-9.3-3.4C54.6,267.3,62.3,212.5,93,166.2c57.6-86.7,174.6-110.4,261.3-52.8
	S464.6,288.1,407,374.8c-15.2,22.9-35.2,40.4-55.9,55.8C351.2,430.6,345.3,434.9,342.3,428.1L342.3,428.1z"/>
<g>
	<path d="M182,352.1V199.9h122.9v127.8l23.4-19.3V188.2c0-6.5-5.3-11.7-11.7-11.7H170.3c-6.5,0-11.7,5.3-11.7,11.7v175.6
		c0,6.5,5.2,11.7,11.7,11.7h102.1l-16.6-23.4H182z M182,352.1"/>
	<path d="M362,302.4c-2.2-2-5.5-2.1-7.7-0.2l-53.7,44.4L264.8,325c-2.4-1.4-5.4-1-7.3,1c-1.9,2-2.1,5.1-0.5,7.3l38.8,54.9
		c1.1,1.5,2.8,2.5,4.7,2.5h0c1.9,0,3.6-0.9,4.7-2.4l57.4-78.3C364.4,307.7,364.1,304.4,362,302.4L362,302.4z M362,302.4"/>
	<path d="M278.6,217.5h-70.2c-6.5,0-11.7,5.2-11.7,11.7c0,6.5,5.2,11.7,11.7,11.7h70.2c6.5,0,11.7-5.3,11.7-11.7
		C290.2,222.7,285,217.5,278.6,217.5L278.6,217.5z M278.6,217.5"/>
	<path d="M278.6,252.6h-70.2c-6.5,0-11.7,5.2-11.7,11.7c0,6.5,5.2,11.7,11.7,11.7h70.2c6.5,0,11.7-5.2,11.7-11.7
		C290.2,257.9,285,252.6,278.6,252.6L278.6,252.6z M278.6,252.6"/>
	<path d="M278.6,287.7h-70.2c-6.5,0-11.7,5.3-11.7,11.7c0,6.5,5.2,11.7,11.7,11.7h70.2c6.5,0,11.7-5.3,11.7-11.7
		C290.2,293,285,287.7,278.6,287.7L278.6,287.7z M278.6,287.7"/>
</g>
</svg>
