<?xml version="1.0" encoding="utf-8"?>
<!-- Generator: Adobe Illustrator 18.1.1, SVG Export Plug-In . SVG Version: 6.00 Build 0)  -->
<svg version="1.1" id="Layer_1" xmlns="http://www.w3.org/2000/svg" xmlns:xlink="http://www.w3.org/1999/xlink" x="0px" y="0px"
	 viewBox="0 0 500 500" enable-background="new 0 0 500 500" xml:space="preserve">
<path fill="#EE2A5C" d="M344,428.2c20-12.6,33.2-26.6,47.2-47.6c52.9-79.6,31.2-187-48.4-239.9s-187-31.2-239.9,48.4
	c-28.2,42.4-36.1,85.8-24.5,131.5l0,0c-8.1,1.6-9.3-3.4-9.3-3.4C56.4,267.4,64,212.6,94.7,166.4C152.3,79.7,269.3,56.1,356,113.6
	S466.4,288.2,408.8,375c-15.2,22.9-35.2,40.4-55.9,55.8C352.9,430.7,347.1,435,344,428.2L344,428.2z"/>
<g>
	<g>
		<g>
			<path fill="#010101" d="M346.8,194.3H145.3c-6,0-10.8,4.8-10.8,10.8v126.4c0,6,4.8,10.8,10.8,10.8h75.4v24.5h-29.3
				c-5.5,0-10,4.5-10,10c0,5.5,4.5,10,10,10h109.5c5.5,0,10-4.5,10-10c0-5.5-4.5-10-10-10h-29.3v-24.5h75.4c6,0,10.8-4.8,10.8-10.8
				V205.1C357.6,199.2,352.8,194.3,346.8,194.3z M341.4,326.2H150.7V210.5h190.8V326.2z"/>
			<path fill="#010101" d="M185.6,274.5l34.1,15.9c0.9,0.4,1.8,0.6,2.8,0.6c1.3,0,2.5-0.4,3.6-1c1.9-1.2,3.1-3.3,3.1-5.6v-0.2
				c0-2.6-1.5-4.9-3.8-6l-21.3-9.9l21.3-9.9c2.3-1.1,3.8-3.4,3.8-6v-0.2c0-2.3-1.1-4.4-3.1-5.6c-1.1-0.7-2.3-1-3.6-1
				c-1,0-1.9,0.2-2.8,0.6L185.6,262c-2.3,1.1-3.8,3.4-3.8,6v0.5C181.8,271,183.3,273.4,185.6,274.5z"/>
			<path fill="#010101" d="M229.4,306.8c1.2,1.7,3.2,2.7,5.4,2.7h0.2c2.9,0,5.4-1.9,6.3-4.6l22.5-69.6c0.6-2,0.3-4.2-1-5.9
				c-1.2-1.7-3.2-2.7-5.4-2.7h-0.2c-2.9,0-5.4,1.9-6.3,4.6l-22.5,69.6C227.8,302.8,228.2,305.1,229.4,306.8z"/>
			<path fill="#010101" d="M263,252.3c0,2.6,1.5,4.9,3.8,6l21.3,9.9l-21.3,9.9c-2.3,1.1-3.8,3.4-3.8,6v0.2c0,2.3,1.1,4.4,3.1,5.6
				c1.1,0.7,2.3,1,3.6,1c1,0,1.9-0.2,2.8-0.6l34.1-15.9c2.3-1.1,3.8-3.4,3.8-6V268c0-2.6-1.5-4.9-3.8-6l-34.1-15.9
				c-0.9-0.4-1.8-0.6-2.8-0.6c-1.3,0-2.5,0.4-3.6,1c-1.9,1.2-3.1,3.3-3.1,5.6V252.3L263,252.3z"/>
		</g>
	</g>
</g>
</svg>
